<?xml version="1.0"?>
<svg xmlns="http://www.w3.org/2000/svg" viewBox="0 0 16 16">
    <path style="line-height:normal;text-indent:0;text-align:start;text-decoration-line:none;text-decoration-style:solid;text-decoration-color:#000;text-transform:none;block-progression:tb;isolation:auto;mix-blend-mode:normal" d="M 8 2 C 6.9013528 2 6 2.9013528 6 4 C 6 4.5359199 6.2172227 5.0225055 6.5644531 5.3828125 C 5.6949156 5.8630822 5.0861731 6.7542994 5.0136719 7.7949219 C 4.8385866 7.6348457 4.6446138 7.498286 4.4355469 7.3828125 C 4.7827773 7.0225055 5 6.5359199 5 6 C 5 4.9013528 4.0986472 4 3 4 C 1.9013528 4 1 4.9013528 1 6 C 1 6.5359199 1.2172227 7.0225055 1.5644531 7.3828125 C 0.63783253 7.8946108 0 8.8710999 0 10 L 1 10 C 1 8.8890941 1.8890941 8 3 8 C 4.1109059 8 5 8.8890941 5 10 L 6 10 L 6 8 C 6 6.8890941 6.8890941 6 8 6 C 8.8771397 6 9.6087462 6.557788 9.8808594 7.3378906 C 8.20287 7.9887398 7 9.5953927 7 11.5 C 7 13.979359 9.0206409 16 11.5 16 C 13.979359 16 16 13.979359 16 11.5 C 16 10.971855 15.89289 10.471418 15.724609 10 L 16 10 C 16 8.8710999 15.362167 7.8946108 14.435547 7.3828125 C 14.782777 7.0225055 15 6.5359199 15 6 C 15 4.9013528 14.098647 4 13 4 C 11.901353 4 11 4.9013528 11 6 C 11 6.374177 11.111679 6.7208916 11.292969 7.0214844 C 11.141073 7.0285717 10.997306 7.06418 10.849609 7.0859375 C 10.610496 6.3572647 10.099278 5.7494096 9.4355469 5.3828125 C 9.7827773 5.0225055 10 4.5359199 10 4 C 10 2.9013528 9.0986472 2 8 2 z M 8 3 C 8.5582071 3 9 3.4417929 9 4 C 9 4.5582071 8.5582071 5 8 5 C 7.4417929 5 7 4.5582071 7 4 C 7 3.4417929 7.4417929 3 8 3 z M 3 5 C 3.5582071 5 4 5.4417929 4 6 C 4 6.5582071 3.5582071 7 3 7 C 2.4417929 7 2 6.5582071 2 6 C 2 5.4417929 2.4417929 5 3 5 z M 13 5 C 13.558207 5 14 5.4417929 14 6 C 14 6.5582071 13.558207 7 13 7 C 12.441793 7 12 6.5582071 12 6 C 12 5.4417929 12.441793 5 13 5 z M 11.5 8 C 13.438919 8 15 9.5610811 15 11.5 C 15 13.438919 13.438919 15 11.5 15 C 9.5610811 15 8 13.438919 8 11.5 C 8 9.5610811 9.5610811 8 11.5 8 z M 13.001953 9.8613281 L 11.160156 11.703125 L 10.013672 10.556641 L 9.3066406 11.263672 L 11.160156 13.117188 L 13.708984 10.568359 L 13.001953 9.8613281 z"/>
</svg>
