<svg xmlns="http://www.w3.org/2000/svg" xmlns:xlink="http://www.w3.org/1999/xlink" width="456" zoomAndPan="magnify" viewBox="0 0 342 149.999998" height="200" preserveAspectRatio="xMidYMid meet" version="1.0"><defs><g/><clipPath id="279a45aa75"><path d="M 22.386719 31 L 93 31 L 93 143.933594 L 22.386719 143.933594 Z M 22.386719 31 " clip-rule="nonzero"/></clipPath></defs><path fill="#44a6d9" d="M 138.691406 25.449219 L 142.183594 33.664062 L 150 33.664062 L 144.339844 39.179688 L 145.679688 46.964844 L 138.691406 43.28125 L 131.695312 46.964844 L 133.035156 39.179688 L 127.382812 33.664062 L 135.195312 33.664062 L 138.691406 25.449219 " fill-opacity="1" fill-rule="nonzero"/><path fill="#264790" d="M 113.4375 3.203125 L 115.789062 8.738281 L 121.0625 8.738281 L 117.25 12.457031 L 118.148438 17.695312 L 113.4375 15.21875 L 108.730469 17.695312 L 109.621094 12.457031 L 105.820312 8.738281 L 111.082031 8.738281 L 113.4375 3.203125 " fill-opacity="1" fill-rule="nonzero"/><path fill="#44a6d9" d="M 97.511719 44.761719 L 99.058594 48.398438 L 102.511719 48.398438 L 100.011719 50.828125 L 100.605469 54.273438 L 97.511719 52.648438 L 94.421875 54.273438 L 95.019531 50.828125 L 92.515625 48.398438 L 95.972656 48.398438 L 97.511719 44.761719 " fill-opacity="1" fill-rule="nonzero"/><g clip-path="url(#279a45aa75)"><path fill="#44a6d9" d="M 31.519531 79.621094 C 26.515625 108.96875 45.144531 136.902344 73.59375 143.933594 C 72.210938 143.800781 70.8125 143.617188 69.410156 143.371094 C 38.664062 138.144531 17.972656 108.949219 23.210938 78.203125 C 28.449219 47.453125 57.632812 26.753906 88.378906 31.992188 C 89.78125 32.238281 91.160156 32.527344 92.515625 32.859375 C 63.34375 30.078125 36.519531 50.261719 31.519531 79.621094 " fill-opacity="1" fill-rule="evenodd"/></g><path fill="#264790" d="M 116.90625 123.171875 C 70.410156 149.652344 24.511719 84.910156 64.890625 49.796875 C 63.597656 50.542969 62.320312 51.34375 61.078125 52.230469 C 40.71875 66.667969 35.910156 94.878906 50.339844 115.238281 C 64.777344 135.597656 92.988281 140.398438 113.347656 125.96875 C 114.589844 125.085938 115.78125 124.152344 116.90625 123.171875 " fill-opacity="1" fill-rule="evenodd"/><path fill="#264790" d="M 82.660156 16.589844 L 85.46875 23.371094 C 83.253906 23.132812 81.042969 23.019531 78.839844 23.019531 C 63.753906 23.019531 49.042969 28.378906 37.414062 38.105469 C 33.546875 41.332031 30.109375 44.980469 27.128906 48.957031 L 24.191406 41.847656 L 23.824219 40.964844 L 20.972656 40.765625 L 11.683594 40.097656 L 5.0625 39.625 L 4.800781 39.609375 L 4.800781 59.304688 C 5.484375 59.707031 5.945312 60.441406 5.945312 61.28125 C 5.945312 61.996094 5.613281 62.644531 5.089844 63.054688 C 5.003906 63.132812 4.90625 63.203125 4.800781 63.257812 L 4.800781 65.417969 L 7.207031 70.226562 L 0 70.226562 L 2.359375 65.503906 L 2.359375 63.386719 C 1.679688 62.996094 1.214844 62.261719 1.214844 61.410156 C 1.214844 60.617188 1.617188 59.917969 2.238281 59.503906 C 2.28125 59.46875 2.316406 59.433594 2.359375 59.410156 C 2.414062 59.375 2.457031 59.339844 2.519531 59.304688 L 2.519531 39.453125 L 42.074219 1.820312 L 86.585938 0.710938 L 96.652344 0.457031 L 82.660156 16.589844 " fill-opacity="1" fill-rule="evenodd"/><g fill="#264790" fill-opacity="1"><g transform="translate(76.820874, 104.591859)"><g><path d="M 0.984375 0 L 0.984375 -8.046875 L 3.4375 -8.046875 L 3.4375 -30.109375 L 0.984375 -30.109375 L 0.984375 -38.140625 L 21.671875 -38.140625 L 21.671875 -30.109375 L 17.15625 -30.109375 L 17.15625 -8.046875 L 21.578125 -8.046875 L 21.578125 -12.546875 L 31.328125 -12.546875 L 31.328125 0 Z M 0.984375 0 "/></g></g></g><g fill="#264790" fill-opacity="1"><g transform="translate(108.829954, 104.591859)"><g><path d="M 0.984375 0 L 0.984375 -8.046875 L 3.4375 -8.046875 L 3.4375 -30.109375 L 0.984375 -30.109375 L 0.984375 -38.140625 L 34.078125 -38.140625 L 34.078125 -23.34375 L 23.09375 -23.34375 L 23.09375 -30.109375 L 17.15625 -30.109375 L 17.15625 -22.359375 L 21.46875 -22.359375 L 21.46875 -16.765625 L 17.15625 -16.765625 L 17.15625 -8.046875 L 23.09375 -8.046875 L 23.09375 -15.78125 L 34.078125 -15.78125 L 34.078125 0 Z M 0.984375 0 "/></g></g></g><g fill="#264790" fill-opacity="1"><g transform="translate(143.78014, 104.591859)"><g><path d="M 36.96875 -8.046875 L 38.9375 -8.046875 L 38.9375 0 L 19.703125 0 L 19.703125 -8.046875 L 22.65625 -8.046875 L 21.875 -11.96875 L 15.203125 -11.96875 L 14.421875 -8.046875 L 17.359375 -8.046875 L 17.359375 0 L 0.59375 0 L 0.59375 -8.046875 L 2.546875 -8.046875 L 10.828125 -38.140625 L 28.6875 -38.140625 Z M 16.28125 -17.15625 L 20.796875 -17.15625 L 18.78125 -26.921875 L 18.28125 -26.921875 Z M 16.28125 -17.15625 "/></g></g></g><g fill="#264790" fill-opacity="1"><g transform="translate(183.28905, 104.591859)"><g><path d="M 0.984375 -8.046875 L 3.4375 -8.046875 L 3.4375 -30.109375 L 0.984375 -30.109375 L 0.984375 -38.140625 L 23.484375 -38.140625 C 27.703125 -38.140625 30.921875 -37.273438 33.140625 -35.546875 C 35.367188 -33.816406 36.484375 -31.003906 36.484375 -27.109375 C 36.484375 -24.921875 36.039062 -23.023438 35.15625 -21.421875 C 34.269531 -19.828125 33.007812 -18.71875 31.375 -18.09375 L 31.421875 -17.609375 C 34.566406 -17.109375 36.140625 -15.175781 36.140625 -11.8125 L 36.140625 -8.046875 L 38.4375 -8.046875 L 38.4375 0 L 22.890625 0 L 22.890625 -11.515625 C 22.890625 -12.796875 22.703125 -13.757812 22.328125 -14.40625 C 21.953125 -15.0625 21.363281 -15.503906 20.5625 -15.734375 C 19.769531 -15.960938 18.632812 -16.078125 17.15625 -16.078125 L 17.15625 -8.046875 L 20.390625 -8.046875 L 20.390625 0 L 0.984375 0 Z M 19.8125 -22.0625 C 20.757812 -22.0625 21.46875 -22.3125 21.9375 -22.8125 C 22.414062 -23.320312 22.65625 -24.117188 22.65625 -25.203125 L 22.65625 -26.96875 C 22.65625 -28.039062 22.414062 -28.832031 21.9375 -29.34375 C 21.46875 -29.851562 20.757812 -30.109375 19.8125 -30.109375 L 17.15625 -30.109375 L 17.15625 -22.0625 Z M 19.8125 -22.0625 "/></g></g></g><g fill="#264790" fill-opacity="1"><g transform="translate(222.503858, 104.591859)"><g><path d="M 29.21875 -38.140625 L 45.3125 -38.140625 L 45.3125 -30.109375 L 42.859375 -30.109375 L 42.859375 0 L 29.078125 0 L 14.703125 -22.109375 L 14.703125 -8.046875 L 17.0625 -8.046875 L 17.0625 0 L 0.984375 0 L 0.984375 -8.046875 L 3.4375 -8.046875 L 3.4375 -30.109375 L 0.984375 -30.109375 L 0.984375 -38.140625 L 18.6875 -38.140625 L 31.578125 -18.484375 L 31.578125 -30.109375 L 29.21875 -30.109375 Z M 29.21875 -38.140625 "/></g></g></g><g fill="#0a2351" fill-opacity="1"><g transform="translate(118.187655, 120.772656)"><g><path d="M 9.359375 0 L 8.296875 0 L 6.421875 -6.203125 C 6.335938 -6.484375 6.238281 -6.832031 6.125 -7.25 C 6.019531 -7.664062 5.960938 -7.914062 5.953125 -8 C 5.859375 -7.445312 5.710938 -6.835938 5.515625 -6.171875 L 3.703125 0 L 2.640625 0 L 0.171875 -9.265625 L 1.3125 -9.265625 L 2.78125 -3.546875 C 2.976562 -2.742188 3.125 -2.015625 3.21875 -1.359375 C 3.332031 -2.128906 3.503906 -2.890625 3.734375 -3.640625 L 5.390625 -9.265625 L 6.53125 -9.265625 L 8.28125 -3.578125 C 8.476562 -2.921875 8.644531 -2.179688 8.78125 -1.359375 C 8.863281 -1.960938 9.019531 -2.695312 9.25 -3.5625 L 10.703125 -9.265625 L 11.84375 -9.265625 Z M 9.359375 0 "/></g></g></g><g fill="#0a2351" fill-opacity="1"><g transform="translate(132.795137, 120.772656)"><g><path d="M 2.171875 0 L 1.109375 0 L 1.109375 -6.953125 L 2.171875 -6.953125 Z M 1.03125 -8.828125 C 1.03125 -9.066406 1.085938 -9.242188 1.203125 -9.359375 C 1.316406 -9.472656 1.460938 -9.53125 1.640625 -9.53125 C 1.816406 -9.53125 1.960938 -9.472656 2.078125 -9.359375 C 2.203125 -9.242188 2.265625 -9.066406 2.265625 -8.828125 C 2.265625 -8.597656 2.203125 -8.421875 2.078125 -8.296875 C 1.960938 -8.179688 1.816406 -8.125 1.640625 -8.125 C 1.460938 -8.125 1.316406 -8.179688 1.203125 -8.296875 C 1.085938 -8.421875 1.03125 -8.597656 1.03125 -8.828125 Z M 1.03125 -8.828125 "/></g></g></g><g fill="#0a2351" fill-opacity="1"><g transform="translate(138.673946, 120.772656)"><g><path d="M 3.359375 -0.734375 C 3.546875 -0.734375 3.722656 -0.75 3.890625 -0.78125 C 4.066406 -0.8125 4.207031 -0.84375 4.3125 -0.875 L 4.3125 -0.0625 C 4.195312 -0.0078125 4.023438 0.03125 3.796875 0.0625 C 3.578125 0.101562 3.378906 0.125 3.203125 0.125 C 1.859375 0.125 1.1875 -0.582031 1.1875 -2 L 1.1875 -6.125 L 0.203125 -6.125 L 0.203125 -6.640625 L 1.1875 -7.078125 L 1.640625 -8.5625 L 2.25 -8.5625 L 2.25 -6.953125 L 4.265625 -6.953125 L 4.265625 -6.125 L 2.25 -6.125 L 2.25 -2.046875 C 2.25 -1.617188 2.347656 -1.289062 2.546875 -1.0625 C 2.742188 -0.84375 3.015625 -0.734375 3.359375 -0.734375 Z M 3.359375 -0.734375 "/></g></g></g><g fill="#0a2351" fill-opacity="1"><g transform="translate(145.851294, 120.772656)"><g><path d="M 5.875 0 L 5.875 -4.5 C 5.875 -5.0625 5.742188 -5.484375 5.484375 -5.765625 C 5.222656 -6.046875 4.816406 -6.1875 4.265625 -6.1875 C 3.535156 -6.1875 3.003906 -5.984375 2.671875 -5.578125 C 2.335938 -5.179688 2.171875 -4.535156 2.171875 -3.640625 L 2.171875 0 L 1.109375 0 L 1.109375 -9.859375 L 2.171875 -9.859375 L 2.171875 -6.875 C 2.171875 -6.519531 2.15625 -6.222656 2.125 -5.984375 L 2.1875 -5.984375 C 2.382812 -6.316406 2.675781 -6.578125 3.0625 -6.765625 C 3.445312 -6.960938 3.882812 -7.0625 4.375 -7.0625 C 5.226562 -7.0625 5.863281 -6.859375 6.28125 -6.453125 C 6.707031 -6.054688 6.921875 -5.414062 6.921875 -4.53125 L 6.921875 0 Z M 5.875 0 "/></g></g></g><g fill="#0a2351" fill-opacity="1"><g transform="translate(156.41116, 120.772656)"><g/></g></g><g fill="#0a2351" fill-opacity="1"><g transform="translate(162.37865, 120.772656)"><g><path d="M 2.359375 -3.859375 L 2.359375 0 L 1.28125 0 L 1.28125 -9.265625 L 3.8125 -9.265625 C 4.945312 -9.265625 5.785156 -9.046875 6.328125 -8.609375 C 6.878906 -8.179688 7.15625 -7.53125 7.15625 -6.65625 C 7.15625 -5.425781 6.53125 -4.597656 5.28125 -4.171875 L 7.796875 0 L 6.53125 0 L 4.28125 -3.859375 Z M 2.359375 -4.78125 L 3.828125 -4.78125 C 4.585938 -4.78125 5.144531 -4.929688 5.5 -5.234375 C 5.851562 -5.535156 6.03125 -5.988281 6.03125 -6.59375 C 6.03125 -7.207031 5.847656 -7.648438 5.484375 -7.921875 C 5.128906 -8.191406 4.550781 -8.328125 3.75 -8.328125 L 2.359375 -8.328125 Z M 2.359375 -4.78125 "/></g></g></g><g fill="#0a2351" fill-opacity="1"><g transform="translate(172.995519, 120.772656)"><g><path d="M 4.046875 0.125 C 3.023438 0.125 2.21875 -0.1875 1.625 -0.8125 C 1.03125 -1.4375 0.734375 -2.304688 0.734375 -3.421875 C 0.734375 -4.535156 1.007812 -5.421875 1.5625 -6.078125 C 2.113281 -6.742188 2.851562 -7.078125 3.78125 -7.078125 C 4.644531 -7.078125 5.332031 -6.789062 5.84375 -6.21875 C 6.351562 -5.644531 6.609375 -4.890625 6.609375 -3.953125 L 6.609375 -3.28125 L 1.8125 -3.28125 C 1.832031 -2.46875 2.039062 -1.847656 2.4375 -1.421875 C 2.832031 -1.003906 3.382812 -0.796875 4.09375 -0.796875 C 4.84375 -0.796875 5.582031 -0.953125 6.3125 -1.265625 L 6.3125 -0.328125 C 5.9375 -0.160156 5.582031 -0.046875 5.25 0.015625 C 4.914062 0.0859375 4.515625 0.125 4.046875 0.125 Z M 3.765625 -6.1875 C 3.203125 -6.1875 2.753906 -6.003906 2.421875 -5.640625 C 2.097656 -5.285156 1.90625 -4.785156 1.84375 -4.140625 L 5.484375 -4.140625 C 5.484375 -4.804688 5.332031 -5.3125 5.03125 -5.65625 C 4.738281 -6.007812 4.316406 -6.1875 3.765625 -6.1875 Z M 3.765625 -6.1875 "/></g></g></g><g fill="#0a2351" fill-opacity="1"><g transform="translate(182.871284, 120.772656)"><g><path d="M 5.84375 -0.9375 L 5.78125 -0.9375 C 5.300781 -0.226562 4.578125 0.125 3.609375 0.125 C 2.703125 0.125 1.992188 -0.179688 1.484375 -0.796875 C 0.984375 -1.421875 0.734375 -2.304688 0.734375 -3.453125 C 0.734375 -4.597656 0.984375 -5.488281 1.484375 -6.125 C 1.992188 -6.757812 2.703125 -7.078125 3.609375 -7.078125 C 4.546875 -7.078125 5.269531 -6.734375 5.78125 -6.046875 L 5.859375 -6.046875 L 5.8125 -6.546875 L 5.78125 -7.03125 L 5.78125 -9.859375 L 6.84375 -9.859375 L 6.84375 0 L 5.984375 0 Z M 3.734375 -0.75 C 4.453125 -0.75 4.972656 -0.941406 5.296875 -1.328125 C 5.617188 -1.722656 5.78125 -2.359375 5.78125 -3.234375 L 5.78125 -3.453125 C 5.78125 -4.441406 5.617188 -5.144531 5.296875 -5.5625 C 4.972656 -5.976562 4.453125 -6.1875 3.734375 -6.1875 C 3.109375 -6.1875 2.628906 -5.945312 2.296875 -5.46875 C 1.972656 -4.988281 1.8125 -4.3125 1.8125 -3.4375 C 1.8125 -2.550781 1.972656 -1.878906 2.296875 -1.421875 C 2.628906 -0.972656 3.109375 -0.75 3.734375 -0.75 Z M 3.734375 -0.75 "/></g></g></g><g fill="#0a2351" fill-opacity="1"><g transform="translate(193.418478, 120.772656)"><g><path d="M 6.796875 0 L 5.515625 -4.078125 C 5.429688 -4.328125 5.28125 -4.894531 5.0625 -5.78125 L 5.015625 -5.78125 C 4.847656 -5.039062 4.703125 -4.46875 4.578125 -4.0625 L 3.265625 0 L 2.046875 0 L 0.140625 -6.953125 L 1.25 -6.953125 C 1.695312 -5.203125 2.035156 -3.867188 2.265625 -2.953125 C 2.503906 -2.046875 2.640625 -1.429688 2.671875 -1.109375 L 2.71875 -1.109375 C 2.769531 -1.359375 2.847656 -1.671875 2.953125 -2.046875 C 3.054688 -2.429688 3.144531 -2.734375 3.21875 -2.953125 L 4.5 -6.953125 L 5.640625 -6.953125 L 6.875 -2.953125 C 7.113281 -2.234375 7.273438 -1.625 7.359375 -1.125 L 7.40625 -1.125 C 7.425781 -1.28125 7.472656 -1.515625 7.546875 -1.828125 C 7.617188 -2.148438 8.0625 -3.859375 8.875 -6.953125 L 9.953125 -6.953125 L 8.046875 0 Z M 6.796875 0 "/></g></g></g><g fill="#0a2351" fill-opacity="1"><g transform="translate(206.106668, 120.772656)"><g><path d="M 5.390625 0 L 5.1875 -0.984375 L 5.125 -0.984375 C 4.78125 -0.554688 4.4375 -0.265625 4.09375 -0.109375 C 3.75 0.046875 3.316406 0.125 2.796875 0.125 C 2.109375 0.125 1.566406 -0.0507812 1.171875 -0.40625 C 0.785156 -0.757812 0.59375 -1.265625 0.59375 -1.921875 C 0.59375 -3.328125 1.71875 -4.0625 3.96875 -4.125 L 5.140625 -4.171875 L 5.140625 -4.59375 C 5.140625 -5.144531 5.019531 -5.546875 4.78125 -5.796875 C 4.550781 -6.054688 4.179688 -6.1875 3.671875 -6.1875 C 3.085938 -6.1875 2.429688 -6.007812 1.703125 -5.65625 L 1.375 -6.46875 C 1.71875 -6.65625 2.09375 -6.800781 2.5 -6.90625 C 2.90625 -7.007812 3.316406 -7.0625 3.734375 -7.0625 C 4.554688 -7.0625 5.164062 -6.875 5.5625 -6.5 C 5.96875 -6.132812 6.171875 -5.550781 6.171875 -4.75 L 6.171875 0 Z M 3.015625 -0.734375 C 3.671875 -0.734375 4.179688 -0.910156 4.546875 -1.265625 C 4.921875 -1.628906 5.109375 -2.140625 5.109375 -2.796875 L 5.109375 -3.421875 L 4.0625 -3.375 C 3.226562 -3.34375 2.625 -3.210938 2.25 -2.984375 C 1.882812 -2.753906 1.703125 -2.394531 1.703125 -1.90625 C 1.703125 -1.53125 1.816406 -1.238281 2.046875 -1.03125 C 2.273438 -0.832031 2.597656 -0.734375 3.015625 -0.734375 Z M 3.015625 -0.734375 "/></g></g></g><g fill="#0a2351" fill-opacity="1"><g transform="translate(215.919083, 120.772656)"><g><path d="M 5.875 0 L 5.875 -4.5 C 5.875 -5.0625 5.742188 -5.484375 5.484375 -5.765625 C 5.222656 -6.046875 4.816406 -6.1875 4.265625 -6.1875 C 3.546875 -6.1875 3.015625 -5.988281 2.671875 -5.59375 C 2.335938 -5.195312 2.171875 -4.546875 2.171875 -3.640625 L 2.171875 0 L 1.109375 0 L 1.109375 -6.953125 L 1.96875 -6.953125 L 2.140625 -6 L 2.1875 -6 C 2.40625 -6.34375 2.707031 -6.609375 3.09375 -6.796875 C 3.488281 -6.984375 3.925781 -7.078125 4.40625 -7.078125 C 5.238281 -7.078125 5.863281 -6.875 6.28125 -6.46875 C 6.707031 -6.0625 6.921875 -5.414062 6.921875 -4.53125 L 6.921875 0 Z M 5.875 0 "/></g></g></g></svg>