<svg xmlns="http://www.w3.org/2000/svg" xmlns:xlink="http://www.w3.org/1999/xlink" enable-background="new 0 0 2000 2000" viewBox="0 0 2000 2000"><path fill="#407ffe" d="M673.3,1020.7h628c14.2,0,26.7-11.6,27.7-25.8l0.6-428.5c1-14.2-9.8-25.8-24-25.8h-628
					c-14.2,0-26.7,11.6-27.7,25.8l-0.6,428.5C648.3,1009.1,659.1,1020.7,673.3,1020.7z"/><path fill="#007cff" d="M670.9,1020.7h628c14.2,0,26.7-11.6,27.7-25.8l0.6-428.5c1-14.2-9.8-25.8-24-25.8h-628
							c-14.2,0-26.7,11.6-27.7,25.8l-0.6,428.5C645.9,1009.1,656.6,1020.7,670.9,1020.7z"/><path fill="#6b98f6" d="M670.9,1020.7h628c14.2,0,26.7-11.6,27.7-25.8l0.6-428.5c1-14.2-9.8-25.8-24-25.8h-628
							c-14.2,0-26.7,11.6-27.7,25.8l-0.6,428.5C645.9,1009.1,656.6,1020.7,670.9,1020.7z"/><path fill="#407ffe" d="M674.3,553.4h628c0.7,0,1.4,0,2.1,0.1c16.1,1.3,12.8,25.7-3.4,25.7H671.9c-16.2,0-16-24.4,0.3-25.7
						C672.9,553.4,673.6,553.4,674.3,553.4z"/><path fill="#fafafa" d="M1285.9,566.3c-0.2,3.3,2.2,5.9,5.5,5.9c3.3,0,6.1-2.7,6.3-5.9c0.2-3.3-2.2-5.9-5.5-5.9
						C1289,560.4,1286.2,563.1,1285.9,566.3z"/><path fill="#fafafa" d="M1265.8,566.3c-0.2,3.3,2.2,5.9,5.5,5.9c3.3,0,6.1-2.7,6.3-5.9c0.2-3.3-2.2-5.9-5.5-5.9
						C1268.9,560.4,1266,563.1,1265.8,566.3z"/><g><path fill="#fafafa" d="M1245.7,566.3c-0.2,3.3,2.2,5.9,5.5,5.9c3.3,0,6.1-2.7,6.3-5.9c0.2-3.3-2.2-5.9-5.5-5.9
						C1248.7,560.4,1245.9,563.1,1245.7,566.3z"/></g><g><path fill="#fff" d="M687.5,977.9h600.9c5.2,0,9.7-4.2,10-9.4l0-352.4c0.4-5.2-3.5-9.4-8.7-9.4H688.8c-5.2,0-9.7,4.2-10,9.4
					l0,352.4C678.4,973.7,682.3,977.9,687.5,977.9z"/></g><g><path fill="#407ffe" d="M1039.9,721.6c-0.6,8.2,5.6,14.8,13.7,14.8c8.2,0,15.2-6.6,15.8-14.8c0.6-8.2-5.6-14.8-13.7-14.8
							S1040.5,713.4,1039.9,721.6z"/><path fill="#407ffe" d="M944,721.6c-0.6,8.2,5.5,14.8,13.7,14.8c8.2,0,15.3-6.6,15.8-14.8c0.6-8.2-5.6-14.8-13.7-14.8
							C951.7,706.8,944.6,713.4,944,721.6z"/><path fill="#407ffe" d="M917,817.4c1.8,0,3.2-1.4,3.4-3.1c1.7-23.8,39-43.1,83-43.1c29.2,0,55.4,8.7,68.4,22.7
							c5.8,6.2,8.5,12.9,8,19.9c-0.1,1.9,1.3,3.5,3.1,3.6c1.9,0.1,3.5-1.3,3.6-3.1c0.6-8.8-2.7-17.5-9.8-25
							c-14.2-15.3-42.4-24.8-73.4-24.8c-48.4,0-87.8,21.7-89.8,49.4c-0.1,1.9,1.3,3.5,3.1,3.6C916.8,817.4,916.9,817.4,917,817.4z"/><g><path fill="#407ffe" d="M1094.4,691.7c0.8,0,1.6-0.3,2.3-0.9c1.4-1.3,1.4-3.4,0.2-4.8l-14.8-16c-1.3-1.4-3.4-1.4-4.8-0.2
						c-1.4,1.3-1.4,3.4-0.2,4.8l14.8,16C1092.5,691.3,1093.4,691.7,1094.4,691.7z"/></g><g><path fill="#407ffe" d="M924,691.7c0.8,0,1.7-0.3,2.3-0.9l17.1-16c1.4-1.3,1.4-3.4,0.2-4.8c-1.3-1.4-3.4-1.4-4.8-0.2l-17.1,16
						c-1.4,1.3-1.4,3.4-0.2,4.8C922.1,691.3,923.1,691.7,924,691.7z"/></g><g><path fill="#407ffe" d="M836.6,855.5l14.2-0.1l16.5,28.2l2.1-28.3l14.4-0.1l-3.8,51.2l-14.4,0l-16.4-28l-2,28l-14.3,0L836.6,855.5
						z"/><path fill="#407ffe" d="M890.2,880.9c0.6-8.4,3.4-14.9,8.2-19.6c4.9-4.7,11.4-7.1,19.5-7.1c8.3,0,14.6,2.2,18.7,6.8
						c4.2,4.6,5.9,11,5.3,19.3c-0.5,6-1.8,11-4.1,14.8c-2.3,3.8-5.3,6.8-9.2,9c-3.9,2.1-8.6,3.2-14.1,3.2c-5.6,0-10.2-0.9-13.7-2.8
						c-3.5-1.8-6.3-4.7-8.3-8.7C890.5,891.9,889.8,886.9,890.2,880.9z M905.6,880.9c-0.4,5.2,0.3,8.9,2,11.2
						c1.7,2.3,4.2,3.4,7.4,3.4c3.3,0,6-1.1,7.9-3.3c2-2.2,3.2-6.2,3.6-12c0.4-4.8-0.3-8.4-2-10.6c-1.7-2.2-4.2-3.3-7.5-3.3
						c-3.1,0-5.7,1.2-7.7,3.4C907.2,872,906,875.7,905.6,880.9z"/><path fill="#407ffe" d="M976,854.8l23.3-0.1c4.6,0,8.3,0.6,11,1.9c2.7,1.3,4.9,3.1,6.6,5.5c1.7,2.4,2.8,5.2,3.4,8.3
						c0.6,3.2,0.7,6.5,0.4,10.1c-0.4,5.5-1.4,9.9-2.9,12.9c-1.5,3.1-3.4,5.6-5.8,7.7c-2.4,2.1-4.8,3.4-7.4,4.1
						c-3.5,0.9-6.7,1.4-9.5,1.4l-23.2,0L976,854.8z M990.7,866.4l-2.2,28.3l3.8,0c3.3,0,5.6-0.4,7.1-1.1c1.4-0.7,2.6-2,3.6-3.9
						c0.9-1.9,1.6-4.9,1.9-9c0.4-5.5-0.1-9.3-1.7-11.3c-1.6-2-4.4-3-8.5-3L990.7,866.4z"/><path fill="#407ffe" d="M1055.9,897.9l-18,0l-3.2,8.6l-16.1,0l23.4-52l17.3-0.1l15,52.1l-16.6,0L1055.9,897.9z M1053.5,886.6
						l-4.1-18.7l-7.1,18.7L1053.5,886.6z"/><path fill="#407ffe" d="M1075.2,854.2l48.7-0.3l-1.1,13l-16.4,0.1l-3.3,39.4l-16,0l3.3-39.4l-16.3,0.1L1075.2,854.2z"/><path fill="#407ffe" d="M1154.7,897.8l-18.3,0l-3.3,8.7l-16.4,0l24.1-52.6l17.7-0.1l15.1,52.7l-17,0L1154.7,897.8z M1152.3,886.4
						l-4.1-18.9l-7.3,18.9L1152.3,886.4z"/></g></g><g><defs><ellipse id="a" cx="1000" cy="1401.4" rx="786.6" ry="58.1"/></defs><clipPath id="b"><use overflow="visible" xlink:href="#a"/></clipPath><rect width="128.8" height="116.1" x="1657.7" y="1343.4" fill="#e2f4ff" clip-path="url(#b)"/><rect width="121.7" height="116.1" x="1536" y="1343.4" fill="#e2f4ff" clip-path="url(#b)"/><rect width="121.7" height="116.1" x="1414.3" y="1343.4" fill="#e1f3ff" clip-path="url(#b)"/><rect width="121.7" height="116.1" x="1292.5" y="1343.4" fill="#e0f2ff" clip-path="url(#b)"/><rect width="121.7" height="116.1" x="1170.8" y="1343.4" fill="#dff2ff" clip-path="url(#b)"/><rect width="121.7" height="116.1" x="1049" y="1343.4" fill="#def1ff" clip-path="url(#b)"/><rect width="121.7" height="116.1" x="927.3" y="1343.4" fill="#ddf0ff" clip-path="url(#b)"/><rect width="121.7" height="116.1" x="805.6" y="1343.4" fill="#dbefff" clip-path="url(#b)"/><rect width="121.7" height="116.1" x="683.8" y="1343.4" fill="#daeeff" clip-path="url(#b)"/><rect width="121.7" height="116.1" x="562.1" y="1343.4" fill="#d9eeff" clip-path="url(#b)"/><rect width="121.7" height="116.1" x="440.3" y="1343.4" fill="#d8edff" clip-path="url(#b)"/><rect width="121.7" height="116.1" x="318.6" y="1343.4" fill="#d7ecff" clip-path="url(#b)"/><rect width="105.2" height="116.1" x="213.4" y="1343.4" fill="#d7ecff" clip-path="url(#b)"/></g><g><path fill="#d37154" d="M948.6,851.9c0,0-0.3-2.2-2.5-2.9c-0.6-0.4-2.5,3.4-3.4,4.9s-5.1,8.3-5.1,8.3l4.5-1.7L948.6,851.9z"/><path fill="#ff4f5b" d="M938.6,860.2l-13.1-17.6c-0.5-0.6-0.3-1.5,0.3-1.9l3-2.3c0.6-0.5,1.5-0.3,1.9,0.3l13.5,18.1L938.6,860.2z
						"/><path d="M958,875.2l-5.4,4c-1.1,0.8-2.5,0.6-3.3-0.5l-17.4-23.4c-0.8-1.1-0.6-2.5,0.5-3.3l5.4-4c1.1-0.8,2.5-0.6,3.3,0.5
						l17.4,23.4C959.3,872.9,959.1,874.4,958,875.2z"/><path fill="#32477b" d="M927.1,838.7c-9.4,7-22.7,5-29.7-4.4c-7-9.4-5-22.7,4.4-29.7c9.4-7,22.7-5,29.7,4.4
							C938.5,818.5,936.6,831.8,927.1,838.7z" opacity=".3"/><path fill="#ff4f5b" d="M934.8,806.7c-8.3-11.2-24.1-13.6-35.3-5.3c-11.2,8.3-13.6,24.1-5.3,35.3c8.3,11.2,24.1,13.6,35.3,5.3
							C940.7,833.7,943.1,817.9,934.8,806.7z M926.8,838.3c-9.2,6.8-22.2,4.9-29-4.3c-6.8-9.2-4.9-22.2,4.3-29
							c9.2-6.8,22.2-4.9,29,4.3C938,818.5,936,831.5,926.8,838.3z"/><path fill="#fff" d="M908.7,837c-0.4,0.3-1,0.4-1.5,0.1c-1.9-0.9-6.4-3.6-8.6-9.4c-2.1-5.6-0.6-10.6,0.1-12.4
								c0.3-0.7,1.1-1.1,1.8-0.8c0.7,0.3,1.1,1.1,0.8,1.8c-0.6,1.6-1.9,5.7-0.1,10.4c1.8,4.8,5.6,7.1,7.2,7.9c0.7,0.3,1,1.2,0.6,1.9
								C909.1,836.7,908.9,836.8,908.7,837z" opacity=".3"/><path fill="#fff" d="M920.7,837.6C920.7,837.6,920.7,837.6,920.7,837.6c-4,2.5-8.1,1.2-8.3,1.1c-0.7-0.3-1.1-1.1-0.9-1.8
								c0.3-0.7,1.1-1.1,1.8-0.9c0.1,0,3,1,5.7-0.8c0.7-0.4,1.5-0.2,1.9,0.4C921.5,836.4,921.3,837.2,920.7,837.6z" opacity=".3"/><g><path fill="#f4a280" d="M928.2,897c0,0,3.7-11.2,4.7-13.4c0.9-2.2,1.2-14.2,1.6-16.7c0.4-2.5,2.8-5.3,3.6-6
					c0.9-0.7,8.6-8.1,9.5-8.7c1.4-1,3.3-0.6,4.4,0.1c1.1,0.7,3.1,1.7,2.7,3.3c1.2,0.4,2.2,1.5,2,3.3c1.1,0,3.2,2.4,3.2,3.5
					c0,1.1-1.1,2.7-1.1,2.7s1.7,0.5,2.2,1.3c0.5,1,0.3,1.7-0.4,3.3c-1.2,2.6-2.3,6.4-3.3,8.1c-2.1,3.6-4.1,4.5-11.4,12.3
					c-2.8,3.8-7.5,12.2-7.5,12.2L928.2,897z"/></g><g><path fill="#1c2028" d="M668.7,988.8c5.6,16.6,70.8,32.6,70.8,32.6l4.5-21.3c0,0-42.3-18.2-41.8-21.1
					C679.9,962.5,669.3,979.7,668.7,988.8z"/><path fill="#1c2028" d="M725,888.3c0,0-8.3,3.5-15,17.6c-7.6,16.1-43.2,77.4-41.3,82.9c11.2,15.5,28.8,4.1,33.4-9.9
					c0.5-2.9,28.6-47.7,43.2-52C751.2,925.2,725,888.3,725,888.3z"/><path fill="#f4a280" d="M789.2,893.6c-3-8.8,4.7-27.7,4.7-27.7l-23.4-7.2c0,0-3,20.2-10.1,26.3c-6.3,5.4-21.9,2.8-21.9,2.8
							s-8.4,37.6,24,46.3c29,7.8,44-27,44-27S791.8,901.4,789.2,893.6z"/><path fill="#f4a280" d="M752,1393.4c2.9,6.1,3.4,11.8,7.2,17.2c0.4,0.6,1.4,1.2,1.9,1.6l16.9-1.8c2.2-2.7,2.2-2.9-1-7.5
							c-0.9-1.3-0.3-3.2-1.3-4.2c-3-3.2-6.8-11.5-9.2-15.9c-2.1-3.9-4.7-7.9-6.2-10.7c-0.6-1.2-0.7-2-0.8-2.9
							c-0.2-1.5-0.3-4-0.1-6.2c1.1-11.5,7.5-26.5,0.8-25c-1.6,0.3-9.9-0.7-10.8,6c-0.5,3.5-2.5,10-2.5,16.3c0,5-0.9,10.5-1.6,13.6
							c-0.5,1.9-0.9,6.2-0.4,8.2C745.7,1386.4,750.1,1389.5,752,1393.4z"/><path d="M745.2,1374c0.7-0.2,1.6-0.3,2.8-0.2c9.9,1.2,20,26.6,27.7,25c1.6,1.3,2,1.1,3,1.8c0.6,0.4,1.1,1,1.5,1.7
							c1.3,2.3,3.2,6.4-0.2,11.2c-7.7-1.3-13.4-2.6-20.9-7.6c-7.4-4.9-8.7-19.5-15.7-23.7c-0.2-1.1,0.3-2.9,0.8-4.5
							S745.1,1374.5,745.2,1374z"/><path fill="#1c2028" d="M780,1413.5c-5.8-1.5-9.1-2.3-13.2-7.1c-4.7-5.5-6.5-17.7-12.8-21.8c-2.2-1.5-7-2.7-10.6-2.5
							c0.8,3,7.4,10.3,9.1,14.7c0.9,2.3,1.1,9.9,6.7,16.6C771.1,1413.5,780,1413.5,780,1413.5z"/><polygon points="754 1413.5 749.6 1413.5 744.6 1381.1 753.1 1382.9"/><path fill="#f4a280" d="M782,1034.3c0,0,19.9,10.8,21.9,43.9c5.7,95.4-19.5,152.4-20.8,163c-1.2,9.6-3.3,20.4-3.6,31
					c-0.6,19.6-20.1,90.8-20.1,90.8s0.3-1.4-5.2-1.1c-5.3,0.3-7.2-0.9-7.2-0.9s-2-56.3-0.9-90.7c0.5-17.4,10.2-35.5,9.8-38.6
					c-1.6-11.7-5.2-116.2-5.2-116.2s-7.6,73.6-11,85c-3.1,10.4-10.1,43.6-12.6,48.9c-2.6,5.3-4.7,12.5-5.5,15.4
					c-0.8,2.9-2.9,18.6-4.9,22.9c-2,4.3-28.1,69.9-28.1,69.9l-13.8,2.8c0,0,9.3-87.2,13-96.7c3.7-9.7,15.3-29.8,15.6-35.9
					c0.3-6.1-7.5-70.6-8.1-109.2c-0.6-36.4,4.2-52.5,6.3-62.1c2.1-9.7,13-20.9,13-20.9L782,1034.3z"/><defs><path id="c" d="M784.9,1034.3c0,0,19.9,10.8,21.9,43.9
						c5.7,95.4-15.7,142.8-17,153.4c-1.2,9.6-89.6,2.2-89.4-3.9c0.3-6.1-11.8-70.5-12.4-109.1c-0.6-36.4,4.2-52.5,6.3-62.1
						c2.1-9.7,13-20.9,13-20.9L784.9,1034.3z"/></defs><clipPath id="d"><use overflow="visible" xlink:href="#c"/></clipPath><g clip-path="url(#d)"><path d="M784.9,1034.3c0,0,19.9,10.8,21.9,43.9c5.7,95.4-15.7,142.8-17,153.4c-1.2,9.6-89.6,2.2-89.4-3.9
							c0.3-6.1-11.8-70.5-12.4-109.1c-0.6-36.4,4.2-52.5,6.3-62.1c2.1-9.7,13-20.9,13-20.9L784.9,1034.3z"/></g><defs><path id="e" d="M744.8,886.4l16.2-7.9c0,0,5.3-1.5,10.1-1
							c9.6,1,16.5,6.2,16.5,6.2L798,892l6.6,38.4c0,0,3.5,33.3-21.7,29.7c-25.2-3.6-38.6-34-38.6-34L744.8,886.4z"/></defs><clipPath id="f"><use overflow="visible" xlink:href="#e"/></clipPath><g clip-path="url(#f)"><path fill="#eaeef1" d="M739.4,885.4l19.6-10.1c0,0,7.7-9.7,12.5-9.4c4.8,0.3,13.9,12.2,13.9,12.2l12.7,10.3l7.5,38.5
								c0,0,0.6,35.9-24.6,32.3c-25.2-3.6-38.3-36.7-38.3-36.7L739.4,885.4z"/></g><g><path fill="#1c2028" d="M818.8,952.3c4.5-15-5.8-24.4-8-34.6s-2.7-20.7-2.7-20.7s-7.5-4-10.1-5c-6.5-2.5-13.9-4.1-27.2-5.5
					c-11.4-1.2-19.5-0.6-26-0.1c-5,0.4-19.8,1.9-19.8,1.9s-0.2,23,2.8,40.7c3,17.7,5.7,44.1,0.9,59.3c-4.8,15.3-31.6,46.9-31.6,46.9
					s31.7,26.2,67.9,26l19.8-1.7c19.5-3.3,21.2-10.3,21.2-10.3s-13.6-26.5-11.7-45.3c2-18.8,2-28.8,7.6-33
					C807.6,966.6,814.3,967.3,818.8,952.3z"/></g><g><path fill="#1c2028" d="M901.7,963.3c17.5-0.9,44.1-69.5,44.1-69.5l-16.3-7.4c0,0-27.2,42-29.2,44.9
							C886.1,952.2,890.1,957.7,901.7,963.3z"/></g><g><path fill="#1c2028" d="M808.2,923.9c5.5,12.8,11,19.4,11,19.4s79.4,23.6,83.8,19.8c7.3-14.2,8-21.4-12.7-30.6
					c-3.3-1.3-41.5-19.8-60.3-27.1c-6.8-2.6-28.3-9.3-28.3-9.3S798,899.9,808.2,923.9z"/></g><g><path fill="#603813" d="M822.9,803C822.9,803,822.9,803,822.9,803C822.9,803,822.9,803,822.9,803z"/></g><g><path fill="#d37154" d="M791,874.3c1.4-4.8,2.9-8.5,2.9-8.5l-23.4-7.2c0,0-0.4,3-1.4,7C767.9,869.9,790.6,875.4,791,874.3z"/></g><g><path fill="#f29e77" d="M759.5,827.5c0.1,4.5,0.4,12.8,4.1,22c0.2,0.6,1.2,2.9,2.8,5.8c3.2,5.8,5,9.2,9,11.6
							c4.3,2.6,8.7,2.8,10.3,2.8c3.4-0.1,5.8-1.1,9.7-2.8c2.4-1.1,6.5-2.9,11.1-6.4c0,0,13.6-10.4,18.8-29.3c0,0,0-0.1,0.1-0.3
							c0-0.1,0.1-0.2,0.1-0.3c2.5-7.7,4.1-11.7,3.8-17.6c-0.1-0.9-0.2-1.9-0.3-2.9c-0.7-4.9-2.4-10.2-5.3-15.1
							c-3.2-5.3-7.7-10.1-13.9-13.2c-1.6-0.8-3.2-1.5-5-2c-2.1-0.6-4.2-1.1-6.4-1.3c-10.2-1.1-20.6,2.5-27,9.1
							c-4.2,4.3-5.8,9-8.6,18c-0.1,0.3-0.2,0.5-0.3,0.8c-0.1,0.4-0.2,0.7-0.2,0.7C759.6,815.6,759.5,827.5,759.5,827.5z"/><path fill="#f29e77" d="M819.9,838.8c0,0,5.1-10.1,8.9-7.4c3.8,2.6,6.7,8,3.6,13.5c-3.2,5.6-8.9,11.1-13.7,10.4
							c-0.6-0.1-2.2-0.3-3.3-1.6c-0.9-1-1-2.3-1.1-2.8C816.2,846.8,818,842.8,819.9,838.8z"/><path fill="#6b3b32" d="M747.5,798.6c-5.7,25.1,8,53.4,34.1,61.2c26.5,7.9,53.8-9,62.3-33.4c9.6-27.4-5.7-60.4-34.5-67.7
							C782,751.6,753.7,771.3,747.5,798.6z"/><path fill="#2e1b12" d="M818,816.3C818,816.3,818,816.3,818,816.3c0,0,0.1,0.1,0.1,0.1L818,816.3z"/><g><path fill="#5e302a" d="M835.8,767.3c-6.4-14.3-26.5-23.1-40.8-18.9c-18.2,5.2-23.5,30.4-27.6,45c0,0-3.4,17,6,65.2
						c4.1,20.9,16.1,39.3,33.6,51.5l0,0c8.4-5.8,19.2-15.4,21.6-29c2.4-13.5-5.4-19.4-8.7-33.9C811.7,810.9,846.4,790.9,835.8,767.3
						z"/></g></g><g><path fill="#f4a280" d="M679.7,1396.6c2.9,6.1,3.4,11.8,7.2,17.2c0.4,0.6,1.4,1.2,1.9,1.6l16.9-1.8c2.2-2.7,2.2-2.9-1-7.5
							c-0.9-1.3-0.3-3.2-1.3-4.2c-3-3.2-6.8-11.5-9.2-15.9c-2.1-3.9-4.7-7.9-6.2-10.7c-0.6-1.2-0.7-2-0.8-2.9
							c-0.2-1.5-0.3-4-0.1-6.2c1.1-11.5,7.5-26.5,0.8-25c-1.6,0.3-9.9-0.7-10.8,6c-0.5,3.5-2.5,10-2.5,16.3c0,5-0.9,10.5-1.6,13.6
							c-0.5,1.9-0.9,6.2-0.4,8.2C673.4,1389.6,677.8,1392.7,679.7,1396.6z"/><path d="M672.9,1377.2c0.7-0.2,1.6-0.3,2.8-0.2c9.9,1.2,20,26.6,27.7,25c1.6,1.3,2,1.1,3,1.8c0.6,0.4,1.1,1,1.5,1.7
							c1.3,2.3,3.2,6.4-0.2,11.2c-7.7-1.3-13.4-2.6-20.9-7.6c-7.4-4.9-8.7-19.5-15.7-23.7c-0.2-1.1,0.3-2.9,0.8-4.5
							C672.4,1379.2,672.8,1377.7,672.9,1377.2z"/><path fill="#1c2028" d="M707.7,1416.7c-5.8-1.5-9.1-2.3-13.2-7.1c-4.7-5.5-6.5-17.7-12.8-21.8c-2.2-1.5-7-2.7-10.6-2.5
							c0.8,3,7.4,10.3,9.1,14.7c0.9,2.3,1.1,9.9,6.7,16.6C698.8,1416.7,707.7,1416.7,707.7,1416.7z"/><g><polygon points="681.7 1416.7 677.3 1416.7 672.4 1384.3 680.8 1386.1"/></g></g></g></g><g><path d="M1368.1,1228.5c-0.4-1.3,0.3-2.7,1.6-3.2c0,0,0.7-0.3,2.1-0.7c1.2-0.3,2.9-0.9,5.4-1.9c6.8-2.7,13.2-6.4,19.1-11.1
						c6.4-5.1,15.2-14.1,20.7-27.6c5.6-14.1,5.8-30.5,0.7-45c-3-8.5-8-16.2-14.3-22.1c-0.2-0.2-0.4-0.3-0.5-0.5
						c-0.9,3-2,5.9-3.2,8.7c-5.7,13.1-15.2,23.9-26.9,30.5c-6.3,3.5-13.1,5.6-19.5,5.9c-6.7,0.4-13.8-1.3-19.8-4.8
						c-6.2-3.6-11-8.9-13.6-14.9c-2.6-6.2-2.7-13.4-0.3-19.9c2-5.7,5.7-10.9,10.9-15.5c4.5-4,9.8-7,15.8-9.1
						c10.7-3.5,22.5-3.7,34-0.5c6.5,1.8,12.8,4.6,18.4,8.3c0.9-6.6,1-13.4,0.1-20.3c-0.9-6.4-2.8-12.6-5.5-18.6
						c-1.2-2.7-2.7-5.2-4.3-7.8l-3.2-4.4c-0.5-0.7-1.2-1.4-1.8-2.1c-0.4-0.5-0.8-0.9-1.2-1.3c-4.5-4.7-9.4-8.6-14.7-11.5
						c-5.3-3-11.1-5.3-17.2-6.8c-0.7-0.2-1.4-0.3-2.1-0.5c-0.1,1.3-0.2,2.6-0.3,4c-1.3,10.2-4.3,19.5-9.1,27.6
						c-2.9,4.9-6,9-9.3,12.5c-3.9,4.2-8.2,7.6-12.9,10.2c-5.5,3-11.4,4.5-17,4.3c-6.8-0.2-12.8-2.7-17.2-6.9c-4.4-4.3-7-10.8-7-17.8
						c0-6.3,2.1-12.8,6-18.3c8.6-12.1,21.8-18,31.5-20.9c9.3-2.7,19.2-3.5,29.2-2.3c-0.2-4.5-0.9-9-2-13.2c-1.9-7-5.1-13.5-9.4-19.3
						c-8.7-11.7-19.6-18-27.1-21.2c-6.9-2.9-13.9-4.5-21.4-4.9c-2.4-0.2-4.2-0.1-5.7,0c-1.4,0-2.2,0-2.2,0c-1.4,0-2.5-1.1-2.6-2.5
						c-0.1-1.4,1-2.6,2.3-2.7c0,0,0.7-0.1,2.1-0.2c1.2-0.1,3.4-0.3,6.3-0.1c7.9,0.3,15.8,2,23.3,5.1c8.3,3.4,20.1,10.2,29.7,22.9
						c4.8,6.4,8.3,13.5,10.5,21.3c1.4,5,2.2,10.3,2.4,15.8c1.2,0.2,2.5,0.5,3.7,0.8c6.6,1.7,13,4.2,18.8,7.5
						c5.9,3.3,11.3,7.6,16.4,12.8c0.4,0.4,0.7,0.8,1.1,1.2c0.8,0.8,1.6,1.7,2.3,2.7l3.1,4.3l0.3,0.5c1.7,2.7,3.4,5.6,4.7,8.6
						c3,6.5,5,13.3,6,20.4c1.2,8.8,0.9,17.4-0.7,25.6c1.1,0.9,2.2,1.9,3.2,2.8c7,6.7,12.4,15.2,15.8,24.6
						c5.6,15.9,5.3,33.9-0.9,49.4c-6,14.7-15.7,24.4-22.7,29.9c-6.4,5.1-13.4,9-20.7,11.8c-2.6,1-4.6,1.6-5.9,1.9
						c-1.4,0.4-2.1,0.5-2.1,0.5c-0.2,0-0.4,0.1-0.6,0.1C1369.5,1230.4,1368.4,1229.6,1368.1,1228.5z M1378.5,1102.9
						c-10.1-2.7-20.9-2.6-30.2,0.5c-5,1.8-9.7,4.5-13.6,7.9c-4.4,3.9-7.4,8.2-9.1,12.8c-1.8,5-1.7,10.5,0.2,15.1
						c2,4.7,5.8,8.9,10.8,11.7c4.9,2.8,10.7,4.2,16.1,3.9c5.5-0.3,11.3-2.1,16.7-5.1c10.4-5.8,19-15.6,24.1-27.4
						c1.5-3.4,2.7-6.9,3.7-10.6C1391.6,1107.8,1385.2,1104.8,1378.5,1102.9z M1315.1,1032.6c-12.2,3.6-22.1,10.1-28,18.4
						c-3.1,4.4-4.8,9.5-4.8,14.5c0,5.2,1.8,10,5,13.2c3.1,3.1,7.8,4.9,12.8,5.1c4.4,0.2,9.2-1,13.7-3.5c4.1-2.2,7.9-5.2,11.4-8.9
						c3.1-3.1,5.9-6.8,8.5-11.3c4.4-7.4,7.2-15.9,8.4-25.2c0.2-1.4,0.3-2.9,0.3-4.3C1333.1,1029.4,1323.7,1030.1,1315.1,1032.6z"/><rect width="270.7" height="208.8" x="1254.8" y="1193.2" fill="#ffc592"/><polygon fill="#ffc592" points="1254.8 1193.2 1304.8 1239.8 1571 1239.8 1525.6 1193.2"/><polyline points="1304.8 1239.8 1255.4 1195.5 1303.3 1256.2 1525.6 1256.2 1525.6 1239.8" opacity=".5"/><rect width="23.9" height="27" x="1490.8" y="1354.2" fill="#f5f5f5"/><polygon fill="#ff4f5b" points="1254.8 1193.2 1199.2 1239.8 1254.8 1239.8"/><polygon fill="#ea9036" points="1254.8 1193.2 1199.2 1239.8 1254.8 1239.8" opacity=".4"/><g><rect width="28.3" height="94.3" x="1372.9" y="1277.3" fill="#fff" transform="rotate(-134.481 1387 1324.43)"/><rect width="28.3" height="94.3" x="1372.9" y="1277.3" fill="#fff" transform="rotate(-44.481 1386.983 1324.413)"/></g></g><g><path fill="#348c93" d="M415.9,1230.8c-7.6-4.8-16.2-7.7-25.1-8.6c-4.1-0.4-8.6-0.3-11.9,2.2c-0.7,0.5-1.4,1.3-1.2,2.2
									c0.1,0.6,0.7,1.1,1.2,1.5C389.1,1235.8,404.5,1236.8,415.9,1230.8"/><path fill="#348c93" d="M415.3,1230.1c-5.7-4.4-11.4-8.9-16.2-14.3c-4.8-5.4-8.7-11.7-10.2-18.8c-0.4-2.1-0.6-4.6,0.8-6.3
									C402.6,1200.8,412.8,1213.9,415.3,1230.1"/><path fill="#348c93" d="M415.8,1230.7c-1-7.1-1.3-14.3,0.3-21.3c1.6-7,5.4-13.6,11.3-17.6c2.2,5.2,1.3,11.2-0.3,16.7
									c-2.4,8.4-6.2,16.5-11.3,23.7"/><path fill="#348c93" d="M428.5,1253.4c-7.7,0.9-14.4,5-20.1,10.2c-5.7,5.2-9.8,12.2-11.5,19.8c7.5-0.5,14-5.8,18.6-11.8
									c4.6-6,7.9-12.5,13-18.1"/><path fill="#348c93" d="M431.2,1257c-6.2-15.3-4-33.7,5.7-47C441.3,1225.6,439.7,1243.3,431.2,1257"/><path fill="#348c93" d="M448,1277c-7-0.4-14.1,1.2-20.1,4.7c-6.1,3.5-11.1,8.8-14.2,15.1c-0.4,0.9-0.8,1.9-0.2,2.7
									c0.5,0.7,1.5,0.7,2.3,0.7c6.8-0.4,12.8-4.5,17.7-9.2c5-4.6,9.3-10,14.7-14"/><path fill="#348c93" d="M447.4,1275.9c-3.6-11.5-3.8-24.1-0.6-35.7c1.3-4.6,3.4-9.4,7.6-11.6c0.4-0.2,0.8-0.3,1.2-0.2
									c0.4,0.1,0.6,0.5,0.7,0.9c1.5,3.2,2,6.8,1.8,10.3c-0.2,3.5-0.9,6.9-1.6,10.4c-1.3,6.3-2.1,13.2-5.5,18.6
									c-0.8,1.3-1.6,2.7-2.2,4.1c-0.7,1.4-0.7,1.9-1.3,3"/><path fill="#348c93" d="M491.8,1282.5c-3.3-12.5,0.2-27.6,8.1-37.9c0.6-0.8,1.3-1.6,2.3-1.5c1.5,0.1,1.8,2.1,1.8,3.5
									C503.3,1259.4,499.1,1272,491.8,1282.5"/><path fill="#348c93" d="M495.8,1285.2c15.2,4,32.6,0.1,45.2-9.2c-7.5-3.8-16.3-4.9-24.5-3
									C508.3,1274.9,500.9,1278.6,495.8,1285.2"/><path fill="#348c93" d="M499.1,1276.9c8.5-13.9,24.8-22.9,41-23.7c-1.9,6.6-7.3,11.7-13.4,14.8c-6.1,3.1-13,4.5-19.7,5.8
									C504.4,1274.3,500.8,1274.9,499.1,1276.9"/><path fill="#348c93" d="M492.6,1236.5c2.3-7.9,4.6-15.8,5.2-24c0.6-8.2-0.5-16.7-4.8-23.8c-7.9,15.4-8.7,33.3-0.7,48.6"/><path fill="#348c93" d="M519.4,1223c9.3-16.9,28.2-30.4,47.4-32.3C559.4,1209.2,539.2,1223.4,519.4,1223"/><path fill="#348c93" d="M513.5,1226.3c13.9,2.1,25.7,11,38.6,16.3c2.8,1.1,5.8,2.1,8.7,1.7c3-0.4,5.9-2.4,6.6-5.3
									c0.6-2.4-0.6-5-2.3-6.8c-1.7-1.8-4-2.9-6.3-3.8c-14.1-5.9-29.2-6-44.1-2.5"/><path fill="#348c93" d="M505.5,1236.1c3.1,0.9,4.2,2.5,6.7,4.6c8.4,7.2,18.5,12.4,29.3,15c1.1,0.3,2.6,0.4,3.1-0.6
									c0.5-0.9-0.1-2-0.8-2.7c-4.5-5.6-10.9-9.5-17.7-12c-6.8-2.5-12.6-5.5-20.7-4.9"/><path fill="#348c93" d="M496.5,1177.4c11.3,10.5,27.1,15.9,42.5,14.4c0.7-0.1,1.5-0.2,1.9-0.7c1.1-1.2-0.2-3-1.5-3.9
									C526.9,1177.5,511.8,1173.4,496.5,1177.4"/><path fill="#348c93" d="M507.2,1173.5c14.9-11.2,35.3-14.5,53-8.7c-6.7,6.6-15.9,10.1-25.3,11.1
									C525.6,1176.8,516.3,1175.7,507.2,1173.5"/><path fill="#348c93" d="M502.9,1146.5c-1.2-12.5-0.4-22.3-1.3-34.8c-0.1-1-0.3-2.2-1.2-2.6c-1.3-0.5-2.4,1.1-2.8,2.4
									c-3.7,11.5-1.7,24.8,5.3,34.7"/><path fill="#348c93" d="M502,1147.9c8.4-5.2,14.8-12,20.6-20.1c4.1-5.6,7.5-12.3,6.6-19.1c-5.7-0.1-11.2,3-14.9,7.4
									c-3.7,4.4-5.9,9.8-7.6,15.3C505.1,1136.8,504,1142.5,502,1147.9"/><path fill="#348c93" d="M522.3,1142.2c18.5-6.9,35.8-17.1,50.8-30c-6.1-2.4-13-1-19.1,1.5c-13.9,5.6-25.2,15-32,28.4"/><path fill="#348c93" d="M507.7,1154.7c9.4,1,18.9,1.7,28.2,0.1c9.1-1.5,17.8-5.2,26.3-8.8c0.7-0.3,1.5-0.7,1.8-1.4
									c0.3-0.8,0-1.7-0.6-2.3c-0.6-0.6-1.4-0.8-2.2-1.1c-9.3-2.6-19.3-1.4-28.5,1.7C523.6,1146.2,516.1,1149.9,507.7,1154.7"/><path fill="#348c93" d="M454.2,1177.8c-6.4-12.9-6-28-0.5-41.3c3.9,5.9,4.4,13.5,3.7,20.5c-0.7,7.1-2.9,14.3-3,21.4"/><path fill="#348c93" d="M428.6,1164.9c-16-0.3-32,6.5-42.8,18.2c8,1.3,16.2-0.8,23.4-4.3c7.3-3.5,13.7-8.5,20.1-13.4"/><path fill="#348c93" d="M411.4,1159.2c-7.8-0.6-15.3-1.6-22.8,0.7c-7.5,2.3-14.4,7.5-17.4,14.8c7.3,0.8,14.7-1,21.4-4
									C399.3,1167.6,405.4,1163.3,411.4,1159.2"/><path fill="#348c93" d="M436.9,1159.4c-7-4.6-14.2-9.3-22.4-11.2c-8.2-1.9-17.7-0.5-23.4,5.7c6.6,3.9,14.7,4.3,22.3,4.3
									c7.7,0,17.1-0.1,24.3,2.5"/><path fill="#348c93" d="M436.9,1159.8c-12-11.8-16.6-33-11.7-49.1C434.6,1125,438.9,1142.7,436.9,1159.8"/><path fill="#348c93" d="M470,1126.4c2.3-5.3,3.9-10.8,5.9-16.2c2-5.4,4.6-10.6,8.4-14.9c3.8-4.3,9.2-7.4,14.9-7.7
									c-3.6,16.2-14.4,30.8-28.9,38.9"/><path fill="#348c93" d="M464,1133.3c-3.8-5.2-8.1-12.2-13.2-16c-5.1-3.9-11.7-6.2-17.9-4.7
									C439.2,1123.9,451.1,1131.8,464,1133.3"/><path fill="#348c93" d="M465.2,1126.8c-2.5-6.2-4.9-12.6-5.9-19.2c-1-6.6-0.4-13.7,3-19.5c6.6,12.5,8.7,25.9,3.3,38.9"/><path fill="#348c93" d="M470,1088.1c3.7-12.4,15.1-21.5,27.3-25.6c1.5-0.5,3.2-1,4.8-0.7c1.6,0.2,3.2,1.3,3.5,2.9
									c0.4,2.1-1.3,4-2.9,5.4C493.2,1078.2,482,1084.3,470,1088.1"/><path fill="#348c93" d="M470.2,1078c0.5-8,1-16.1,3.6-23.6c2.6-7.6,7.6-14.6,14.9-17.9c1.2,8.1-2.3,16.1-6.6,23
									c-4.3,6.9-9.4,13.5-12,21.2"/><path fill="#348c93" d="M470,1083.4c-3.1-9-3.4-20.5-8.8-28.3c-3.8-5.5-9.8-9.2-13.1-15c-2.2,5.4-1.5,11.7,0.8,17.1
									c2.3,5.4,6,10,10,14.3C462.8,1075.7,466.3,1078.9,470,1083.4"/><path fill="#348c93" d="M470,1349.6c-0.8,0-0.8-0.7-0.9-1.5c0-0.5,0-1.1,0-2c0-1.8-0.1-4.4-0.1-7.8
										c-0.1-6.8-0.1-16.4-0.1-28.8c-0.1-25.3-0.1-59.1-0.1-94.9c0-35.9,0-69.6,0.1-94.9c0-12.3,0.1-22,0.1-28.8
										c0-3.4,0.1-6,0.1-7.8c0-0.9,0-1.6,0-2c0-0.8,0-1.5,0.9-1.5s0.8,0.7,0.9,1.5c0,0.5,0,1.1,0,2c0,1.8,0.1,4.4,0.1,7.8
										c0.1,6.8,0.1,16.4,0.1,28.8c0.1,25.3,0.1,59.1,0.1,94.9c0,35.8,0,69.6-0.1,94.9c0,12.3-0.1,22-0.1,28.8
										c0,3.4-0.1,6-0.1,7.8c0,0.9,0,1.6,0,2C470.9,1348.9,470.8,1349.6,470,1349.6z"/><path fill="#348c93" d="M470,1197.1c-0.1,0-0.1,0-0.2,0c-0.8-0.1-0.7-0.9-0.6-1.5c0.1-0.4,0.2-1.1,0.5-1.9
										c0.7-2,2.1-4.1,4-5.8c2-1.8,4.8-3.6,8.5-5.3c3.5-1.6,7.2-3.2,11-4.8c9.1-3.7,16.7-6.2,20.5-7.4c2.8-0.9,5-1.5,6.3-1.8
										c2.7-0.7,3.1-0.8,3.3,0l0,0c0.2,0.8-0.2,1-2.8,1.8l-6.2,2.1c-7,2.4-13.8,4.9-20.2,7.6c-1.3,0.5-2.5,1.1-3.8,1.6
										c-6.1,2.6-11.8,5-15.2,7.9c-2.2,1.9-3.2,3.8-3.6,4.8c-0.3,0.8-0.5,1.4-0.6,1.8C470.8,1196.4,470.6,1197.1,470,1197.1z"/><path fill="#348c93" d="M474.1,1189.8c-0.2,0-0.3-0.1-0.5-0.2c-0.6-0.5-0.2-1.1,0.4-1.9l0.2-0.2c0.4-0.5,0.8-1.1,1.5-1.9
										c1.7-2.1,3.9-4.7,6.4-7.4c6.2-6.9,14.3-14.9,23-22.6c11-9.7,19.8-17.4,24.1-21.2l7.4-6.3l2-1.7c0.8-0.6,1.3-1.1,1.9-0.5
										c0.5,0.6,0,1.1-0.7,1.8l-1.9,1.8l-7.5,6.8l-23.7,21.1c-11.5,10.2-19.3,18.3-23,22.2c-2.9,3.1-5.1,5.6-6.5,7.2l-1.7,2
										C474.9,1189.3,474.5,1189.8,474.1,1189.8z"/><path fill="#348c93" d="M496,1166.1c-0.1,0-0.3,0-0.4-0.1c-0.8-0.4-0.7-0.6,0.7-4.5c0.7-1.8,1.6-4.2,2.5-6.8
										c1.1-3.2,1.9-6.2,2.4-8.1c0.7-2.6,0.8-3,1.6-2.9l0.4,0.1l0.2,0.3c0.5,0.8-0.6,6.7-2.3,11.4c-1.1,3.1-2.2,5.7-2.9,7.3
										C497,1165.4,496.6,1166.1,496,1166.1z"/><path fill="#348c93" d="M470.1,1202.5c-0.5,0-0.9-0.6-2.1-2l-3.7-4.7c-3.5-4.5-7.6-9.8-12.2-15.6c-4.7-5.9-8.9-11-12.4-15.4
										l-3.8-4.7c-1.5-1.9-1.9-2.3-1.2-2.9c0.7-0.6,1-0.2,2.7,1.6c1,1.1,2.4,2.6,4,4.5c2.3,2.6,6.9,8,12.7,15.3
										c5.8,7.2,10,13,12,15.8c1.5,2,2.7,3.7,3.5,4.9c1.4,2,1.7,2.5,1,3l0,0C470.4,1202.4,470.2,1202.5,470.1,1202.5z"/><path fill="#348c93" d="M458.6,1186.9c-0.1,0.2-3.2-3.5-4.8-9c-1.2-3.9-1.2-7.5-1.1-9.1l0.4,0c-0.2,0.7-0.3,1.1-0.4,1.1
										c-0.1,0-0.1-0.4,0-1.1l0.4,0c0.1,1.6,0.4,5.1,1.5,8.9C456.1,1183,458.8,1186.7,458.6,1186.9z"/><path fill="#348c93" d="M443.7,1169c-0.4,0-0.7-0.3-0.9-0.4c-0.5-0.4-1.3-1.1-2.8-1.6c-2-0.8-5.2-1-9-0.7
										c-3,0.2-6.1,0.7-9.3,1.5c-0.9,0.2-1.6,0.4-2.2,0.6c-1.9,0.5-2.4,0.6-2.6-0.1l-0.1-0.3l0.2-0.3c0.2-0.5,1.6-1.1,4.2-1.9
										c1.7-0.5,5.3-1.5,9.7-1.8c4.1-0.4,7.7,0,10,1.1c2.1,0.9,3.7,2.5,3.6,3.3l0,0.6l-0.4,0.1C443.9,1169,443.8,1169,443.7,1169z
										"/><path fill="#348c93" d="M440.2,1164.5c-0.4,0-0.9-0.2-1.7-0.5c-0.9-0.3-2.2-0.9-3.8-1.4c-2.3-0.8-7-2.2-12.7-2.6
										c-5.7-0.4-10.6,0.2-12.9,0.7c-1.7,0.3-3,0.6-3.9,0.8c-1.5,0.4-2.1,0.5-2.4-0.3c-0.3-0.8,0.4-1.1,1.9-1.6
										c1-0.4,2.3-0.7,4-1.1c2.4-0.6,7.4-1.4,13.6-0.9c6.2,0.5,11,2.1,13.3,3c1.6,0.6,2.9,1.2,3.8,1.7c1.3,0.7,2,1.1,1.6,1.9
										C440.7,1164.3,440.5,1164.5,440.2,1164.5z"/><path fill="#348c93" d="M469.9,1145.3c-0.7,0-1.3-1.4-4.4-13.7c-3.3-13.1-3-13.6-2.8-13.9l0.2-0.3l0.7-0.2l0.3,0.2
										c0.3,0.2,0.8,0.5,4.1,13.6c3.5,14,3.2,14,2.3,14.3l0,0C470.1,1145.3,470,1145.3,469.9,1145.3z"/><path fill="#348c93" d="M470.1,1145.3c-0.6,0-0.8-0.6-1.3-1.6c-0.6-1.4-1.7-4-3.5-6.5c-1.9-2.8-4.2-4.7-5.3-5.5
										c-0.7-0.6-1.3-1-0.9-1.7l0.2-0.3l0.4-0.1c0.7-0.2,2.5,1,3,1.4c1.6,1.1,3.3,2.9,4.7,4.8c2.7,3.9,3.9,8.3,3.5,9.1l-0.2,0.4
										l-0.4,0C470.3,1145.3,470.2,1145.3,470.1,1145.3z"/><path fill="#348c93" d="M470,1317.6c-0.7,0-0.8-0.7-0.9-1.5c-0.1-0.7-0.4-1.7-0.7-3.1c-0.5-1.8-1.6-5.5-4-10.3
										c-4.2-8.5-11.9-19.4-21.2-29.8c-1-1.1-1.9-2.2-2.9-3.3c-3.8-4.3-7.3-8.3-10.4-12.2c-3.9-4.8-7.2-9.6-9.6-13.8
										c-2.6-4.5-4.1-8.1-4.9-10.3c-0.5-1.4-0.8-2.3-1-3c-0.3-1.1-0.5-1.8,0.3-2c0.8-0.2,1,0.3,1.4,1.5c0.2,0.6,0.6,1.6,1.1,2.8
										c0.9,2.2,2.5,5.7,5,9.9c2.4,4.1,5.7,8.7,9.5,13.4c2.9,3.6,6.2,7.4,9.7,11.3c1.2,1.3,2.4,2.7,3.6,4.1
										c9.4,10.6,17.2,21.7,21.3,30.5c2.4,5.1,3.4,8.9,3.8,10.8c0.3,1.5,0.5,2.4,0.5,3.1c0.1,1.1,0.2,1.8-0.6,1.9
										C470.1,1317.6,470,1317.6,470,1317.6z"/><path fill="#348c93" d="M470.1,1317.6c-0.1,0-0.3,0-0.4-0.1c-0.8-0.3-0.5-1.1-0.2-1.7l0.1-0.3c0.2-0.4,0.4-1,0.7-1.7
										c0.7-1.4,1.8-3.8,3.7-6.9c3-5,7.7-10.8,13.1-17.6l2.4-3c3.5-4.4,6.6-7.9,9.3-10.8c2.9-3,6-5.7,8.8-7.8
										c2.8-2.1,5.3-3.4,6.8-4.1c0.6-0.3,1.2-0.6,1.6-0.7l0.4-0.2c0.7-0.3,1.4-0.6,1.8,0.2l0,0c0.3,0.7-0.1,0.9-1.7,1.8l-1.1,0.6
										c-2.2,1.2-4.3,2.6-6.3,4.2c-2.7,2.1-5.6,4.7-8.4,7.6c-2.6,2.8-5.5,6.2-9.1,10.6c-1.3,1.6-2.6,3.2-3.9,4.8
										c-4.8,6-9,11.1-11.7,15.5c-1.8,2.8-3.1,5.2-3.9,6.6l-0.5,1C470.8,1317.1,470.6,1317.6,470.1,1317.6z"/><path fill="#348c93" d="M485.6,1294c-0.2,0-0.3-0.1-0.5-0.2l-0.3-0.2l0-0.3c0-0.2-0.1-0.5,0.9-1.8c0.7-0.9,1.7-1.9,2.8-2.9
										c3.1-2.7,7.3-5,11.6-6.4c4.6-1.5,8.9-2,12.9-2.3c6.1-0.4,6.1-0.2,6.2,0.6c0.1,0.9,0.1,0.9-6,1.6l-0.4,0.1
										c-3.1,0.4-7.5,1-11.9,2.4c-3.9,1.3-7.9,3.4-10.9,5.7c-1.6,1.2-2.7,2.3-3.2,2.9C486.4,1293.6,486,1294,485.6,1294z"/><path fill="#348c93" d="M487.2,1292.1c-0.1,0-0.3,0-0.4-0.1c-0.8-0.4-0.5-1.1,0.5-2.9c0.8-1.6,2-3.9,3.1-6.7
										c1-2.9,1.6-5.6,1.9-7.3c0.4-1.9,0.5-2.6,1.4-2.4c0.8,0.1,0.9,0.8,0.6,3.7c-0.3,2.5-0.8,4.7-1.6,6.8
										c-0.8,2.1-1.8,4.1-3.1,6.3C488.3,1291.3,487.7,1292.1,487.2,1292.1z"/><path fill="#348c93" d="M470.1,1282.3c-0.1,0-0.2,0-0.3-0.1c-0.8-0.3-0.6-1-0.3-1.9l0.9-2.6c0.5-1.5,1-2.8,1.6-4.1
										c0.2-0.4,0.3-0.8,0.5-1.2c0.5-1.2,1.1-2.6,1.9-4.1l1.5-3c0.4-0.7,0.7-1.4,1.1-2.1c0.2-0.4,0.4-0.7,0.6-1.1
										c1-1.8,2.2-3.7,3.5-5.6l0.8-1.2c3.6-5.1,7.5-9.9,11.6-14.2c4.2-4.3,8.8-8.3,13.8-12.1l1.2-0.8c1.9-1.3,3.7-2.6,5.5-3.7
										c0.4-0.2,0.7-0.4,1.1-0.7c0.7-0.4,1.3-0.8,2-1.2l2.9-1.6c1.4-0.8,2.8-1.4,4-2c0.4-0.2,0.8-0.4,1.2-0.6
										c1.3-0.6,2.6-1.2,4-1.7l2.5-1c1-0.4,1.6-0.6,1.9,0.2l0,0c0.3,0.7-0.3,1-1.3,1.5l-2.5,1.1c-1,0.4-2.3,1-3.8,1.8
										c-0.4,0.2-0.9,0.4-1.3,0.7c-1.2,0.6-2.4,1.2-3.7,2l-2.9,1.6c-0.6,0.4-1.2,0.8-1.9,1.2c-0.4,0.2-0.7,0.5-1.1,0.7
										c-1.7,1-3.4,2.2-5.1,3.5l-1.3,0.9c-4.9,3.7-9.4,7.7-13.4,11.8c-4,4.2-7.8,8.9-11.4,13.9l-0.9,1.3c-1.2,1.8-2.4,3.6-3.3,5.3
										c-0.2,0.4-0.5,0.8-0.7,1.2c-0.4,0.7-0.8,1.3-1.1,1.9l-1.5,2.9c-0.7,1.3-1.3,2.6-1.8,3.8c-0.2,0.5-0.4,0.9-0.6,1.3
										c-0.7,1.5-1.3,2.9-1.7,3.9l-1,2.5C470.9,1281.7,470.6,1282.3,470.1,1282.3z"/><path fill="#348c93" d="M495.3,1241.6c-0.1,0,0.3-1.5,2.1-3.1c1.7-1.6,4.8-3.1,8.3-3.2c3.6-0.1,6.6,0.9,8.8,1.7
										c2.1,0.8,3.4,1.5,3.3,1.6c0,0.1-1.4-0.4-3.5-1c-2.1-0.7-5.2-1.5-8.5-1.4c-3.4,0.1-6.3,1.4-7.9,2.8
										C496,1240.4,495.4,1241.7,495.3,1241.6z"/><path fill="#348c93" d="M489.5,1248.3l-0.3-0.2c-0.7-0.4-0.4-1.1,0-1.9c0.6-1.2,1.6-3.6,2-6.5c0.4-3-0.1-5.5-0.4-6.8
										c-0.2-0.9-0.3-1.6,0.4-1.9l0.3-0.1l0.3,0.2c0.6,0.3,1.1,1.9,1.4,2.7c0.5,1.8,0.7,4.1,0.4,6.2c-0.2,2.1-0.9,4.3-1.9,5.9
										c-0.4,0.8-1.3,2.2-2,2.4L489.5,1248.3z"/><g><path fill="#ff5f4a" d="M428.5,1325.4c1.3,23,8.2,46.3,18.9,70h46.3c10.2-23.4,16.6-46.7,17.7-70H428.5z"/></g><g><rect width="90.4" height="11.9" x="424.1" y="1325.4" fill="#ce4949"/></g></g><g opacity=".5"><path fill="#ea9036" d="M1008.8,1152.4l1.2-3.5c1.3-3.8,4.9-6.3,8.9-6.3h40.6c5.2,0,9.5,4.2,9.5,9.5v79.9c0,5.2-4.2,9.5-9.5,9.5
						H947c-5.2,0-9.5-4.2-9.5-9.5v-63.8c0-5.2,4.2-9.5,9.5-9.5h52.9C1003.9,1158.7,1007.5,1156.1,1008.8,1152.4z"/><path fill="#ffb45a" d="M937.5,1230.4v1.5c0,5.2,4.2,9.5,9.5,9.5h114.1c5.2,0,10.3-3.8,11.4-8.5l16.7-71.9
						c1.1-4.7-2.3-8.5-7.5-8.5h-40.6c-4,0-8.1,2.3-10.2,5.7l-1.9,3.1c-2.1,3.4-6.2,5.7-10.2,5.7h-52.9c-5.2,0-10.3,3.8-11.4,8.5
						l-12.9,55.4c-0.3,1.1-1.4,1.7-2.5,1.4C938.2,1232.1,937.5,1231.3,937.5,1230.4z"/><polygon fill="#ea9036" points="1020.4 1215.9 1027.2 1210.5 1009.9 1187.1 1003.1 1192.5"/><polygon fill="#ea9036" points="1031.9 1192.5 1027.9 1187.1 998.4 1210.5 1002.4 1215.9"/></g></svg>